:FULLY-SPECIFIED
:FORCE-ALL-JOINTS-BE-3DOF
:DEGREES
130
root 9.09685 16.0256 -19.1123 5.81501 7.72049 4.88964
lfemur 18.7642 1.77414 -25.5319
ltibia 2.95987 0 0
lfoot -12.0083 -0.225001 0
ltoes -7.6162 0 0
rfemur -42.3794 10.2388 6.24087
rtibia 26.0994 0 0
rfoot -22.551 -11.9517 0
rtoes -19.7384 0 0
lowerback -8.13408 -3.87223 -5.88025
upperback -1.27231 -4.70327 2.20339
thorax 3.88878 -2.44143 5.05096
lowerneck -19.467 -5.58285 -13.3968
upperneck 20.5866 -6.51684 11.3241
head 10.6753 -2.75696 5.34583
lclavicle -3.97708e-14 -2.51602e-15 0
lhumerus -31.3823 -23.5125 96.5667
lradius 37.931 0 0
lwrist 7.79941 0 0
lhand -10.2462 -23.6512 0
lfingers 7.12502 0 0
lthumb 15.7454 5.71519 0
rclavicle -3.97708e-14 -2.51602e-15 0
rhumerus -47.4472 5.99112 -82.3212
rradius 32.7051 0 0
rwrist -17.6894 0 0
rhand -29.6532 -23.4964 0
rfingers 7.12502 0 0
rthumb -2.98259 -53.4556 0
131
root 9.07095 16.033 -18.9523 5.88836 7.90255 4.74918
lfemur 18.738 1.97451 -25.0622
ltibia 3.91633 0 0
lfoot -11.1594 -0.118653 0
ltoes -7.98753 0 0
rfemur -42.2938 9.99219 6.64215
rtibia 26.2752 0 0
rfoot -22.1166 -11.6041 0
rtoes -19.4778 0 0
lowerback -8.06827 -3.87824 -5.74384
upperback -1.29086 -4.72444 2.24131
thorax 3.82684 -2.4492 5.01706
lowerneck -19.4963 -5.61812 -13.4286
upperneck 20.4584 -6.56113 11.4069
head 10.6463 -2.76888 5.37072
lclavicle -3.66267e-14 -2.88365e-15 0
lhumerus -31.685 -22.7593 96.3923
lradius 37.2534 0 0
lwrist 7.08585 0 0
lhand -9.96795 -23.4748 0
lfingers 7.12502 0 0
lthumb 16.0132 5.8676 0
rclavicle -3.66267e-14 -2.88365e-15 0
rhumerus -47.4804 5.92679 -82.2723
rradius 32.5072 0 0
rwrist -17.6217 0 0
rhand -29.6417 -23.6154 0
rfingers 7.12502 0 0
rthumb -2.97145 -53.5748 0
132
root 9.04382 16.0414 -18.7905 5.96226 8.07717 4.5967
lfemur 18.6693 2.18917 -24.5644
ltibia 4.97452 0 0
lfoot -10.2583 0.00801663 0
ltoes -8.37199 0 0
rfemur -42.1853 9.71497 7.09014
rtibia 26.5083 0 0
rfoot -21.6467 -11.2333 0
rtoes -19.1979 0 0
lowerback -7.9953 -3.88155 -5.59605
upperback -1.30911 -4.74328 2.28275
thorax 3.76016 -2.45561 4.98125
lowerneck -19.5316 -5.65455 -13.4625
upperneck 20.3204 -6.60612 11.4954
head 10.6152 -2.78037 5.39765
lclavicle -3.31966e-14 -3.25724e-15 0
lhumerus -31.9893 -21.9431 96.1886
lradius 36.5177 0 0
lwrist 6.3174 0 0
lhand -9.67419 -23.2872 0
lfingers 7.12502 0 0
lthumb 16.2959 6.02979 0
rclavicle -3.31966e-14 -3.25724e-15 0
rhumerus -47.5098 5.86948 -82.2285
rradius 32.3038 0 0
rwrist -17.5557 0 0
rhand -29.6279 -23.7394 0
rfingers 7.12502 0 0
rthumb -2.95812 -53.6992 0
133
root 9.01556 16.0506 -18.6273 6.03654 8.24428 4.43325
lfemur 18.5588 2.41663 -24.042
ltibia 6.12599 0 0
lfoot -9.31211 0.153658 0
ltoes -8.76731 0 0
rfemur -42.0546 9.41005 7.58088
rtibia 26.7936 0 0
rfoot -21.1453 -10.8417 0
rtoes -18.9008 0 0
lowerback -7.91574 -3.88207 -5.4379
upperback -1.32707 -4.75958 2.32735
thorax 3.68914 -2.46058 4.94368
lowerneck -19.572 -5.692 -13.4983
upperneck 20.1732 -6.65174 11.5891
head 10.5823 -2.7915 5.42645
lclavicle -2.95117e-14 -3.63598e-15 0
lhumerus -32.2949 -21.0706 95.9585
lradius 35.7302 0 0
lwrist 5.50116 0 0
lhand -9.36737 -23.0899 0
lfingers 7.12502 0 0
lthumb 16.5911 6.20053 0
rclavicle -2.95117e-14 -3.63598e-15 0
rhumerus -47.5351 5.81894 -82.1893
rradius 32.0966 0 0
rwrist -17.4915 0 0
rhand -29.6122 -23.8679 0
rfingers 7.12502 0 0
rthumb -2.94297 -53.828 0
134
root 8.98632 16.0607 -18.4627 6.11101 8.40384 4.25986
lfemur 18.4072 2.6554 -23.4984
ltibia 7.36226 0 0
lfoot -8.32769 0.316919 0
ltoes -9.17126 0 0
rfemur -41.9024 9.08039 8.11046
rtibia 27.1259 0 0
rfoot -20.6165 -10.4314 0
rtoes -18.5885 0 0
lowerback -7.83018 -3.87975 -5.27037
upperback -1.34475 -4.77313 2.37478
thorax 3.61414 -2.46403 4.9045
lowerneck -19.6167 -5.73035 -13.5359
upperneck 20.0176 -6.69795 11.6877
head 10.5474 -2.80231 5.45698
lclavicle -2.56032e-14 -4.01907e-15 0
lhumerus -32.6018 -20.1486 95.7049
lradius 34.8977 0 0
lwrist 4.64425 0 0
lhand -9.04987 -22.8842 0
lfingers 7.12502 0 0
lthumb 16.8966 6.37856 0
rclavicle -2.56032e-14 -4.01907e-15 0
rhumerus -47.5561 5.77494 -82.1542
rradius 31.8873 0 0
rwrist -17.4296 0 0
rhand -29.595 -24.0002 0
rfingers 7.12502 0 0
rthumb -2.92639 -53.9606 0
135
root 8.95622 16.0716 -18.2969 6.18549 8.55578 4.07757
lfemur 18.2156 2.90398 -22.937
ltibia 8.67487 0 0
lfoot -7.31209 0.496447 0
ltoes -9.58159 0 0
rfemur -41.7297 8.72894 8.67495
rtibia 27.5001 0 0
rfoot -20.0645 -10.0047 0
rtoes -18.2629 0 0
lowerback -7.73918 -3.87451 -5.09449
upperback -1.36215 -4.78372 2.42467
thorax 3.53556 -2.46586 4.86386
lowerneck -19.6646 -5.76947 -13.5751
upperneck 19.8546 -6.74468 11.7907
head 10.5109 -2.81287 5.48909
lclavicle -2.15024e-14 -4.40571e-15 0
lhumerus -32.91 -19.184 95.4308
lradius 34.0265 0 0
lwrist 3.75378 0 0
lhand -8.72408 -22.6718 0
lfingers 7.12502 0 0
lthumb 17.2101 6.56263 0
rclavicle -2.15024e-14 -4.40571e-15 0
rhumerus -47.5727 5.73721 -82.1227
rradius 31.6775 0 0
rwrist -17.3703 0 0
rhand -29.5768 -24.1357 0
rfingers 7.12502 0 0
rthumb -2.90876 -54.0965 0
136
root 8.92539 16.0831 -18.1303 6.25981 8.70005 3.88742
lfemur 17.9845 3.16088 -22.3611
ltibia 10.0553 0 0
lfoot -6.2723 0.690891 0
ltoes -9.99606 0 0
rfemur -41.5371 8.35863 9.2704
rtibia 27.9109 0 0
rfoot -19.4934 -9.56386 0
rtoes -17.9262 0 0
lowerback -7.64332 -3.86628 -4.91123
upperback -1.37927 -4.79113 2.47668
thorax 3.45379 -2.46599 4.82191
lowerneck -19.715 -5.80922 -13.6159
upperneck 19.6848 -6.79188 11.8976
head 10.4727 -2.82323 5.52262
lclavicle -1.72407e-14 -4.7951e-15 0
lhumerus -33.2194 -18.1836 95.1391
lradius 33.1232 0 0
lwrist 2.83687 0 0
lhand -8.39241 -22.454 0
lfingers 7.12502 0 0
lthumb 17.5292 6.75149 0
rclavicle -1.72407e-14 -4.7951e-15 0
rhumerus -47.5845 5.70551 -82.0942
rradius 31.4691 0 0
rwrist -17.3138 0 0
rhand -29.5578 -24.2737 0
rfingers 7.12502 0 0
rthumb -2.89045 -54.2349 0
137
root 8.89395 16.0953 -17.9629 6.33378 8.83659 3.69045
lfemur 17.7149 3.42459 -21.7742
ltibia 11.4952 0 0
lfoot -5.21533 0.898899 0
ltoes -10.4124 0 0
rfemur -41.3253 7.97243 9.8929
rtibia 28.3532 0 0
rfoot -18.9072 -9.11106 0
rtoes -17.5802 0 0
lowerback -7.5432 -3.855 -4.72162
upperback -1.39611 -4.79516 2.53045
thorax 3.3692 -2.46432 4.77881
lowerneck -19.7669 -5.84949 -13.658
upperneck 19.5091 -6.83948 12.0079
head 10.4329 -2.83344 5.55742
lclavicle -1.28491e-14 -5.18644e-15 0
lhumerus -33.5298 -17.1541 94.8328
lradius 32.1944 0 0
lwrist 1.90063 0 0
lhand -8.05724 -22.2322 0
lfingers 7.12502 0 0
lthumb 17.8517 6.94391 0
rclavicle -1.28491e-14 -5.18644e-15 0
rhumerus -47.5914 5.67959 -82.0682
rradius 31.2637 0 0
rwrist -17.2605 0 0
rhand -29.5385 -24.4138 0
rfingers 7.12502 0 0
rthumb -2.87183 -54.3753 0
138
root 8.86204 16.108 -17.7949 6.40722 8.96535 3.48769
lfemur 17.4075 3.69363 -21.1797
ltibia 12.9861 0 0
lfoot -4.14817 1.11912 0
ltoes -10.8284 0 0
rfemur -41.0951 7.57328 10.5385
rtibia 28.8219 0 0
rfoot -18.3101 -8.64857 0
rtoes -17.2271 0 0
lowerback -7.43938 -3.8406 -4.52665
upperback -1.41269 -4.79559 2.58564
thorax 3.28219 -2.46079 4.7347
lowerneck -19.8194 -5.89015 -13.7013
upperneck 19.3284 -6.88743 12.1212
head 10.3918 -2.84357 5.59336
lclavicle -8.3591e-15 -5.57892e-15 0
lhumerus -33.8412 -16.1024 94.5148
lradius 31.2465 0 0
lwrist 0.95216 0 0
lhand -7.72096 -22.008 0
lfingers 7.12502 0 0
lthumb 18.1753 7.13863 0
rclavicle -8.3591e-15 -5.57892e-15 0
rhumerus -47.5932 5.65921 -82.0442
rradius 31.0631 0 0
rwrist -17.2107 0 0
rhand -29.5193 -24.5551 0
rfingers 7.12502 0 0
rthumb -2.8533 -54.5171 0
139
root 8.82978 16.1212 -17.6267 6.47995 9.08627 3.28018
lfemur 17.0632 3.96649 -20.5809
ltibia 14.5194 0 0
lfoot -3.07782 1.3502 0
ltoes -11.2418 0 0
rfemur -40.8474 7.16414 11.2033
rtibia 29.3117 0 0
rfoot -17.7062 -8.17863 0
rtoes -16.8688 0 0
lowerback -7.33244 -3.823 -4.32732
upperback -1.429 -4.79222 2.64189
thorax 3.19313 -2.45529 4.68973
lowerneck -19.8715 -5.93105 -13.7458
upperneck 19.1433 -6.93567 12.237
head 10.3492 -2.85367 5.63026
lclavicle -3.80181e-15 -5.97175e-15 0
lhumerus -34.1535 -15.0352 94.188
lradius 30.286 0 0
lwrist -0.00141252 0 0
lhand -7.38598 -21.7827 0
lfingers 7.12502 0 0
lthumb 18.4976 7.33439 0
rclavicle -3.80181e-15 -5.97175e-15 0
rhumerus -47.5896 5.6441 -82.0218
rradius 30.8689 0 0
rwrist -17.1646 0 0
rhand -29.5006 -24.6972 0
rfingers 7.12502 0 0
rthumb -2.83522 -54.6595 0
140
root 8.79731 16.1348 -17.4583 6.5518 9.19928 3.06896
lfemur 16.6827 4.24168 -19.9814
ltibia 16.0867 0 0
lfoot -2.01129 1.59079 0
ltoes -11.6503 0 0
rfemur -40.5828 6.74794 11.8833
rtibia 29.8176 0 0
rfoot -17.0996 -7.70349 0
rtoes -16.5074 0 0
lowerback -7.22296 -3.80214 -4.12463
upperback -1.44506 -4.78483 2.69884
thorax 3.10241 -2.44774 4.64405
lowerneck -19.9225 -5.97208 -13.7912
upperneck 18.9549 -6.98414 12.3549
head 10.3055 -2.86379 5.66798
lclavicle 7.9147e-16 -6.36413e-15 0
lhumerus -34.4667 -13.9595 93.8554
lradius 29.3195 0 0
lwrist -0.952979 0 0
lhand -7.05468 -21.5579 0
lfingers 7.12502 0 0
lthumb 18.8164 7.52997 0
rclavicle 7.9147e-16 -6.36413e-15 0
rhumerus -47.5805 5.63402 -82.0003
rradius 30.6829 0 0
rwrist -17.1227 0 0
rhand -29.4828 -24.8394 0
rfingers 7.12502 0 0
rthumb -2.81798 -54.8021 0
141
root 8.76474 16.1488 -17.29 6.62258 9.30435 2.85507
lfemur 16.2669 4.5177 -19.3844
ltibia 17.6795 0 0
lfoot -0.955564 1.83954 0
ltoes -12.0517 0 0
rfemur -40.3021 6.32764 12.5747
rtibia 30.3342 0 0
rfoot -16.4944 -7.22539 0
rtoes -16.1448 0 0
lowerback -7.11152 -3.77795 -3.91959
upperback -1.46085 -4.77321 2.75616
thorax 3.01042 -2.43806 4.59782
lowerneck -19.9712 -6.01311 -13.8375
upperneck 18.7637 -7.03279 12.4744
head 10.2606 -2.874 5.70638
lclavicle 5.38948e-15 -6.75526e-15 0
lhumerus -34.7806 -12.8819 93.52
lradius 28.3535 0 0
lwrist -1.89543 0 0
lhand -6.72945 -21.335 0
lfingers 7.12502 0 0
lthumb 19.1293 7.7241 0
rclavicle 5.38948e-15 -6.75526e-15 0
rhumerus -47.5656 5.62873 -81.9794
rradius 30.5068 0 0
rwrist -17.0852 0 0
rhand -29.4662 -24.9811 0
rfingers 7.12502 0 0
rthumb -2.80195 -54.9441 0
142
root 8.73222 16.163 -17.122 6.69211 9.4014 2.63954
lfemur 15.8165 4.79306 -18.7935
ltibia 19.2894 0 0
lfoot 0.0823502 2.09509 0
ltoes -12.4438 0 0
rfemur -40.0061 5.90618 13.2734
rtibia 30.8566 0 0
rfoot -15.8947 -6.74657 0
rtoes -15.7831 0 0
lowerback -6.99871 -3.75037 -3.71319
upperback -1.4764 -4.75715 2.81349
thorax 2.91753 -2.42615 4.55119
lowerneck -20.0169 -6.05401 -13.8845
upperneck 18.5707 -7.08155 12.5951
head 10.2146 -2.88434 5.74529
lclavicle 9.96097e-15 -7.14433e-15 0
lhumerus -35.0952 -11.8093 93.1845
lradius 27.3945 0 0
lwrist -2.82164 0 0
lhand -6.41269 -21.1154 0
lfingers 7.12502 0 0
lthumb 19.434 7.91555 0
rclavicle 9.96097e-15 -7.14433e-15 0
rhumerus -47.5448 5.62797 -81.9584
rradius 30.3424 0 0
rwrist -17.0525 0 0
rhand -29.4512 -25.1216 0
rfingers 7.12502 0 0
rthumb -2.7875 -55.0849 0
143
root 8.69986 16.1774 -16.9545 6.76022 9.49038 2.42342
lfemur 15.3324 5.06626 -18.2119
ltibia 20.9079 0 0
lfoot 1.09545 2.3561 0
ltoes -12.8243 0 0
rfemur -39.6955 5.48653 13.9756
rtibia 31.3795 0 0
rfoot -15.3046 -6.26926 0
rtoes -15.4243 0 0
lowerback -6.88508 -3.71931 -3.50645
upperback -1.4917 -4.73645 2.87047
thorax 2.82414 -2.41194 4.5043
lowerneck -20.0586 -6.09464 -13.932
upperneck 18.3767 -7.13037 12.7165
head 10.1677 -2.89488 5.78457
lclavicle 1.44747e-14 -7.53054e-15 0
lhumerus -35.4104 -10.7485 92.8521
lradius 26.449 0 0
lwrist -3.72452 0 0
lhand -6.1068 -20.9006 0
lfingers 7.12502 0 0
lthumb 19.7283 8.10305 0
rclavicle 1.44747e-14 -7.53054e-15 0
rhumerus -47.5177 5.63149 -81.9369
rradius 30.1913 0 0
rwrist -17.0248 0 0
rhand -29.4383 -25.2604 0
rfingers 7.12502 0 0
rthumb -2.77503 -55.224 0
